<svg id="图层_1" data-name="图层 1" xmlns="http://www.w3.org/2000/svg" viewBox="0 0 354.08 427.46"><defs><style>.cls-1{fill:#121212;}</style></defs><title>logo单独</title><path class="cls-1" d="M1133.84,55.24l-.94-2-4,.09-2,.85-4.7,4.18-1.11,2.13-2.13,2-3.67,2-2.65.17-1.37.51-.51.94-5.12,3.42-1.62.94-1.45,3.59-2,.85-7.43,2.65L1090.65,79l-2.56.34-8.71,4.87-2.82,2.73-1.54-.09-1.79.51-2.82.77-.77-.77-2.39-.85-3.07-1.37-2.39.43-3.24.85-3.67.94-2.82.68s-1.54.26-1.79.26-6.15-1.79-6.15-1.79l-2.22-.94-2.39-1-4.44-2.13-6.4-2.22-2.65-.43V78.42l-9.48-3.59-5.29-.34-5.89-.6-6.92-.17L995.65,72H991.3l-.94-.58-2.73-.26L986,72h-1.62l-1.11-2.21-.68-.6-.34-3.33-2-1.37L979.55,62l-1.79-2.9-1.28-.17.34-10.76.43-3.16-1-2.56L974.12,39l-2-2L969.39,36l-5.46.26-1.88.17-1.79-.26-3-.94-2.48-.43-1-.94-2.39-1.2-3.33.09-2,.68-.6,1.79-1.2,3.42L943.1,40l-5.89.34-2.82-1.11-2.31.26-1.54.6-3.5-.26-.94.34h-7.85l-1,.6-5-.26-1.71,1.28-3,.17-1.54.77-5.46.26-2.73.68-1.28.26-3.33.51-2.31.51-5.29.43-1.2.6-2.73-.17V37.27l.6-1.45.94-6.15-.26-6.32-.09-5.46L882,13.28,881.07,8l-.94-2.9-2.56-2.48-4.18-.34-.68-.85L869,0h-5.12l-3.33,1.11-4,3.42-1.28,2.39-1.45,2.9.34,2.39,1.28,1.2.85,4.78,2,1.54,6.49,12,.26,2.9.43,1.88V46.84l-1.11.6-7.68,1-8.28,1.11-10.84,2-4.61.6-8.54,1.11-6.75,1-8,.85-7.34,1.28-8.2.68-1.71.17s-.68,13.4-9.48,22.46l4.74-.77,1.75-.85,3,.17,2-.43,7.51-.6,1.37-1,1.28-.17,1.2-.34,1.37.09,2.48-1.45,2.82-.34,1.54-.43,1.54-.34,2.82-1.37L825,71.7l1.79-.43,1.45-.34,3-.94h2.31l1.88-.77,4.53-.73,3.5-.9,5.64-1.71,5-2.39L857.52,62l3.84-.85,1.54-1.11,3.33.34v3.07l.51.77v9.31l.51,2.39-.51,1.88-.85,1.88-.43,2.22-1.37,1.79-.26,3.59L862,89.2l-2,3h-3.33l-1.2,1.71.09,2L852,98l-2.65.85L847.65,98l-.09-.94-1.54.6L845.51,99l-.17,1.37h-2l-2.9-.43-.43,1.42h-1.36l-1.76-.85-2.5-.06-.57-.74-2.62.17-.23,1.48-5,.4-1.42,1.2-.91.91-7.74.74L814,105.72h-2.9L810,107.14l-7.23,1.08-2.62,2.9-.23,4.21.23,1.71.57.8.23,2,1.59.85.23,2,1.14.74.17,2.68,1.14.46,1.2,2.39,1.37,1.42,1.2.4,1,.91.17,1.42,1.65,1.76h.51l.68,1,.28,1.88,2.62,1.08,1.37,2.45,3.19,1.42h3.19l5.64-3,2.62-1.48,1.71-1.37h2.22l3.64-2.56,2.45-1.65,4-2.22,3-1.59,1.82-1.65,2.33.11.4-1.14,1.65-.46,1-.85.46-.06,1.54-.91,1.37-.34,3.3-2.22,2.39-2.45.28-1.42,3.59-6,1.59-.74v-1.42l.74-.85.74-2.45,1.14-.57.57-2.45,1-1,.34-2.5,1.59-1.37V96.27l.68-.68.28-2.79,1-3.36.85-.74-.4-5.18,1-1.48.4-1.37.28-1.71-.91-.74.23-3,.68-.63V69l.4-1.82V65.6l-.4-2.56-.11-6.32,1.71-1.2,3.24-.28.63-.63h2.11l1.25.57,2.28-.57,2.79.23,1.82-.23,1.37-.46h.91l.46-1H902l.51-.8H911l.57.74,8.2.11,1.37-.85h2.73l2.45-.34.34-.91h3.59l.8-.57h11.21l.51.4-.46,2.62-1.14,2.39.06,1.76-1.82,3.24-.57,2.28-.46,1.31-.34.8-1.36,2.26V69l-1.44,2L935,74.3l-.91.85L934,77.09l-.68.51v9.9l-.57.8-.12,2.4-.57.57.06,1.31-1.31,1.31-.74,1,.06,1.42-.68.74-.4,1.82-.8,1.25-1,1.42-1.08,1.31.11,5,1.42.23.4.51,4.67.23v4.61l1,1-.06.8,1.48.68,1.14.74.85.57,3-.17,1.14.91.11.74,2.45-.17.57.91,1.94.06,2,1.2,1.65,1.37,1.71.8.74-.11.34,1.25,2.45-.68,1.09-.28,1.58.63v1.54l1.2,1.08V127l2-.06,1.08.8,1.48.4.34,1,.85.17,1.82.63,1.25.23.57,1,1.76.57,2.22.85v.8l1.59.57a3.85,3.85,0,0,1,.85.23c.17.11,2.28,1,2.28,1l.46,1.54,9,.17.51,1.42.23,1,3.81,2.5-.28.74,1.76,1.71,2.73-.4,2-.8,2.56-.48,2.56.68,2,2.13,4,.09,3.24-.43,2.9.09v1.45l3.42.26,1.37,1.54.17-1.88h1.54l.6-2.25,1.68-1.42,1.25-2.85,4.21-5.58h2.62l.91-.68,3.42-.11-.28,2.39,2.28-.11,4.21-3.64,5-3.3,8.54-3.87,5-1.94,2.39-2.39,3.3-.34,2-1.48,8-4.9,1.59-1.94,2.85-.23,4.1-1.59,7.06-4,3.64-1.74,1.88-1.88,2.48-.85,5-2.56,8-4,.17-1.62,2.13-.26,1.28-2,2.13-1.2,4.61-4.27,5.38-5.29,0-2.6.77-1.2.17-4.71.43-1,1.62-1.11.26-1.28.94-1.88,1.54-2V59Zm-269-48.19-.3.65-1.81-.45L862,6.15l.11-1.55h1.38l1.38.41ZM797.65,71.19l-.37.22h-.8l-.62-.12-.22-.43.3-.73.73-.25.92.15.19.56Zm5.63,0-.53.19-.53-.13-.45-.42.18-.36.59-.33L803,70l.79.51.13.42Zm5.83-10.83-1,.54H806.5l-.28-.46L806,59.8l.48-.6.44-.5,1-.12.93.28.5.82Zm2.1,10.48L811,71l-.67-.42-.52-.3-.19-.46.16-.36.37-.21.86.1.58.46ZM822,65.68l-.76.3-1.48-.2-.16-1.38.38-.72,1-.26,1.06.36.2.42Zm2-4.57-.4.46h-1l-.64-.3-.12-.5.54-.52h1l.6.26Zm16-3.52-.43.23-.64-.54-.71.26h-1.15l-.64-.33v-.64l.33-.41h.61l.71-.2.1-.34.51-.18h.59l.48.38.23.31-.26.71Zm-20.55,54.68.42-.3.5-.12h1.45l.4.34-.08.56.08.65-.25.47-.36.13h-1l-.49-.24-.08-.27v-.23l-.16-.22-.39-.13-.15-.19v-.14Zm-1.61,23.51-.66.31h-1l-.75-.12-.22-.66v-1.09l.66-.54.54-.43h1.47l.27.66Zm2-10.52-.37.19h-.78l-.62-.26-.4-.41v-1l.36-.47h.45l.44.58.29.19h.63l1-.1.66.42-.08.63-.29.53h-.58l-.52-.24Zm2.77,7.74h-1.44l-1-1v-.78l.44-1.22H822l.89.39.27,1.24Zm3.9-20v-.24l.08-.54.58-.33.64.09.23.51v.22h.31l.21.23.18.39-.25.36-.36.29-.66.07h-.65l-.35-.37Zm-.32,16.51-.36-.19-.21-.94-.38-.29-.14-.44.32-.36.66.19h.44l.42.32.34,1.13-.13.44-.55.25Zm5.4,6.79h-2l-.71-.07-.47.49-.16,1-.56.26-.73-.83-.33-.94.28-.35,1.62-.24,1.34-1,.43-.52.78.07.66.54.26.85Zm6.93-7-.36.36h-2.59l-.25-.45-.55-.18-.11-.86v-.75l.34-.55,1.43-.3h1.3l.23.5.66.3.2.52Zm1.31-6-.86.11-.63-.11-.34-.66.11-.59.23-.66.55-.35.63-.08.59.47v.75l.11.46ZM850,117.95l-.23.38h-.35l-.09.58-.29.12h-1.66l-.38-.38-.17-.38-.29-.09-.23-1,.23-.84.76-.5.64-.51h1l.64.62.61.29Zm5.62-4.24-.28,1-.38.36-.15.41-.54.3-.43.84.1,1-.56.87,0,1v.69l-.13.51-.51.08h-.56l-.46.56h-.51l-.61-.1-.15-1,.59-.84.69-.82-.54-1,.54-1,.41-.13.2-.79.43-.82.69-.36.49-.92.49-.64,1-.26.26.23ZM866,8.82l.72-.16,1.14.39.91,1.21-1.11.36h-.42l-.52-.52-.88-.49Zm1.31,14.73-.13-.56-.78-.33-.29-.82.29-.85h.59l.33.69.65.2.29,1.31-.59.52Zm-4,91.36-.74.28-.32.4-.66.2-.9-.19-.57-.73v-1.71l.46-.59H861l.65.29.28.2.54-.39.74.19.59.54.22.9Zm6.5-5.85-.53.25-.29.59-.81.79-.62.12-.53.45-.73.46-.39.66v.82l-.57.28-.85-.26-.49-.45-.11-.83V111l.91-.88.8-.62,2-.19.59-.7.46-.45.53-.34.86.4Zm-3.12-4.43.54-.66h.61l.3.57v1.29l-.47.29-.54-.32-.34-.25Zm3.78-3.62h-.54l-1.13-.39-.32-.27-.32-.54-.89-.73-.47-.41.11-.29.57-.32,1.07.61.93.16.61.3.47.55.14.68Zm4.9-63.25-.67.13h-.83l-.46-.44V37l.26-.38.56-.2,1.09.1.2.59Zm.85-14.35h1.31l.36.29V25l-.46.56-.78-.23L876,24.22Zm2.35,49.06-1,.58-1-.16-.32-.42.16-.65.42-.13L877,71h1.29l.55.55Zm69,32-.35.75-1.5-.29-.23-.46-1.1-1-.52-.81V100.8l.81-.52H946l.64,1v1.45l.87.29Zm8.92,11.33-.6.26-2.42-.46-.21.65-.83.39-1.67-.49-1-.85v-1.14l.42-.85,1.14-.72,2.29.2,2.51.13.4.46.31,1.34Zm2.7,1.54-1.21-.1v-2.06l.75-1,3.53.23s.53.75.46,1-.13,1.76-.13,1.76l.62.46-.75.49-1.86.23Zm4.18,4.18h-1.89l-.72.16-.49-.56v-.65l.2-1.18,1.08-.56,1.18-.39.49.2.16.87Zm3.14-10.12-.91.33-1.91-.63-.56-.95-.46-1a20.81,20.81,0,0,1,0-2.09c.07,0,1.4,0,1.4,0l1.27.69,1.08.1Zm1.5-10.14c-.22.13-2.13.69-2.13.69h-1.47l.21-1V98.26h1.65A21,21,0,0,1,968,99.6c0,.06.17,1.49-.05,1.62Zm10.63,9.2s.09-1.12.22-1a13.24,13.24,0,0,0,1.82,0l.61,1v1.73a3.25,3.25,0,0,1-.74.42c-.17,0-1.91-.29-1.91-.29s.13-.78,0-.91-.06-1-.06-1Zm4.92,19.33h-2.25l-.82-.72-1.34-.91-.46-1.16-.49-.52.88-.59a12.19,12.19,0,0,0,1.89,0c.13-.1,1.24.59,1.24.59a8.49,8.49,0,0,1,.65,1c0,.1.2,1.18.2,1.18s.62.26.62.36-.18.73-.18.73Zm4.74,3h-1.13l-.83-1-.91-.95.72-1.57h1.54l.65,1.11.56,1.63Zm6.61-20H997l1.82,1.6-.48,2.13h-1.73l-1.07-1-1.08-1.39Zm-1.58,19.69L992.08,131l-.82-.56,1-1.42,1-.62,1.27.62.69,2,.29,1.49Zm5.21-.87-.91-.73-.9-.44-1-1.19.2-.85-.2-1.18s1-1,1.11-.82a17.74,17.74,0,0,0,1.47,1.18l1.67,1.67.65,1.44Zm6.41-5.23-1.7-1c-.1-.07-1.34-1.31-1.34-1.31l-.29-1.21-.16-2.58h2.23l.46,1.29.91,1.68s.72,1.67.72,1.8a12.18,12.18,0,0,1-.89,1.35Zm7.46-12.73-1.27-.73-.13-.18a7.9,7.9,0,0,1,.16-1.45,14.24,14.24,0,0,1,2.14-.44c.11.08.7.82.7.82l.38,1.08s-1.26,1.19-1.31,1.21a5.16,5.16,0,0,1-.73-.29Zm3.64,30.42-2.55-.23V142.1l2.32-1.8,1.86,1.31.62,1.37Zm8.68-12.3-2.54.24-.24-.37-.67-1.41v-.15c0-.15.67-.86.67-.86l2.15-.23,1.21,1.09ZM890.36,364.94l1.48-.57,3.07-1.59,1.14-1.48.46-2.73v-6.66l-.85-.63-.23-1.88.63-.91-.51-.74-.11-3.07.46-1.82.63-2-.4-2.33.4-2.33,1.2-2,.34-1.48-1.31-1.48-1.65-1.54-2.22-.68-3.3-1.25-2.11-2.85-2.56-2.68-1.25-.74-1.65-.17-2.5-1.65-1.94-.06-2,.23-1.76.34-2.28-.4L870,318.31l-1.65-1.08-1.07-1.32-2-1.28-1-2.9-1.2-1.92.09-3.2-1.28-3.46-1.58-4.44-1.32-3-.43-4.35,1.54-1.66,3-2,1.66-1.84,3.71-1.49,8.24-5,3.12-3.1,2-.64L883,274l4-1.45,3.8-.94.21-1.84.73-.94v-2.43l1.15-.51.6-1.45.34-.43.17-2.9,1.28-1.75L895,256l-.34-3.66-.13-2.35-.77-3.07-3-4.1-1.37-2-2.09-2.13-3.24-1.2-2.13.3-.81,1.15h-1.88l-2.73,2.69L875.09,244l-.94,1.45-.09,1.24a16.32,16.32,0,0,0-2.43,1.07c-.13.21-3.37,1.88-3.37,1.88l-1.66.56h-3.29l-1.15.94-1.37,1.37-1.75.17-2.86,2.43-1.71.34-1.32.17-1.84,1.4-1.11.51-2.18-.32-.64.79-1-.6-1.2-1-.64-7.26.26-12-.6-1.41.26-.81.3-2,1.11-2.13,2.09-2.69v-1.71l-.43-2.52-.68-1.07-1.71-.3-.77-.55h-5l-2.43.26-.64.55-1.66.38-.38.55-4.57.85-2.35.73-.85.43-.17.6-4.31.17-1.37-.13-.73.81-1.49.6-1.66.26-1.41,2.69-.17,2.13-.21,2.86-.13,3.24v4l.38,1.07-.3,1.49.47,1.45-.26,1.58,1.2,4.31,1.07,2.31.09.77.47.94.21,2.35-.17.9.21,1.75-.6,1.11-.51,1.79-2,1.84-1.49.6-1.2-.17-2.52,1.07-5.51,2.52-2.6,1.49-1.79-.13-.43,1.54-3.37,2-3.8,2.39-2.65.26-2,1.41s15.13,16.85,14,31.31l3.36-.63,1-.51,4.84-1.08,3.81-1.94,3.24-2.16,2.9-.11,1.25,2.22v3.19l.8,2.28-.4,1.48-1.2,2.85-1.76,2L817.5,320l-4.44,4-2.39,3.7-3.3,3.76-.57,1.42-2,1-.23,1.71-2.11,1.71-1.94,2.5-1.63,4.2-.34,1.94L797,347.08l-.63,2.28-2.11,1.08-.4,1.54-2.11,2.22-1.14,2.5-1.2,1.37h-1.2l-1,2.28-2.79,3.13-.4,1.25-1,.4v3.59l-1.37.8-1.31,2.73v3.93l.74.51,1.08.34a10.39,10.39,0,0,0,.85,1c.17.11,3.87,0,3.87,0l2.11-.8,3.19-2,5.64-3.42,2.39-1.14,3.24-1.88,4.21-2.28L809,366l2.45-2,1.76-.34.8.23.74,2.22L814,369l1,2,.06,3-.28,3.19v4.27l-.85,1.2-.23,2.33-1,1.42.17,1.65,1.42,2.39,1.48.4L817,392.4l1.48.91,2.22,3.13,1.2.68.8,2.56,2,1.25,6,5.64,1.82.34h1.31l4.27-3.59,5-3.7,7.85-5.75,5.46-5.18v-3.53l1.54-2-.74-2.56-1.37-2.22-1-2.33.11-4.27-1-1,1.14-1.25a19,19,0,0,1,.11-3.07c.17-.11,1.2-1,1.2-1l1.54-.06,1.42,1,3.42.17,8.25-.11,3.36-.57,3.3-.57,1.25-.8,1.37.57L885,365Zm-2.71-17.16.64-.19.67.09.78.1.79.62.16.52.21.69-.32.56-.49.37-.64.26H889l-.37-.14-.83-.91-.46-1.44Zm-5.6-82.35h.73l.72.29.83.34.32.66v.57l.11.68.09.4-.6.16h-.74l-.45-.1-.38-.24-.73-1-.23-1.38Zm-4-14.63.43-.32.54-.12h.44l.58.79.28.48-.11.4-.65.23-.74.22-.54-.15-.28-.2-.19-.51Zm-12.22,31.42.81-.26h.74l.83.08.46.29.13.37-.56.39-.93.07-.57.11-.84-.17-.17-.5Zm-61.23,17.26-.6.07-.5-.52-.29-.61v-.27l-.45-.21-.7-.66-.36-.71-.09-.62.62-.6h.61l.39.4v.76l.12.38.54.56.91.82.3.86Zm5.54,3-2,.28L807,301.48l-.25-.45,1-1.1h1.93l.93,1Zm-.24-24.33-.58-.78.13-1,.58-.47h.57l.92.37v1.06l-.39.6Zm1.12.94v-.68l.6-.45h.57l.66.56.3.8-.4.57-1.13-.06Zm3.71,20.44-1.73-.09-.92-1.1v-1l.92-.67h.88l1,.84.46,1.18Zm3.13-16.83-.92-.24-.48-.54.08-.71.38-.34.83.06.76.46.13.69Zm-10,77.76-1.09.78-.66.54-.53.57-2.23.81-1.31-.1-.1-1.6.48-.94,1.21-.78,1.41-.9h1.18l1,.08.74.12.41.56Zm.53-7.39-.35.31-.48.24-.31.06-.3-.08-1-.26-.22-1.42.15-.44.48-.19h1.15l.36.44.29.45.19.36ZM825,372.13v.49l-.52.31-.71.23-.47,0-.45-.08-1.45-.28-.34-1.42.22-.44.72-.18h1.72l.54.45.44.45Zm-4-4.62-.59-1.26v-1.71l.46-.52h.78l.7.32.81.37.65.93v1.44l-.54.49-.65.23-.77.07-.45-.1Zm1.8-133.06h-.65l-.35-.37v-1l.08-.54.58-.33.64.09.39.16.26.21.08.26.21.31v.44l-.25.36-.36.29Zm-1.66,105.87.62-.22h1.46l.46.52.37.53.25.42v.58l-.44.37-.6.28-.4.07h-.68l-.93-.37-.28-1.72Zm-.59,15.41.72-.22H823l.54.53.44.53.29.43v.58l-.52.37-.71.28-.47.07-.45-.1-1.46-.2-.34-1.68ZM820.47,377l-.33-1.86.23-.58.72-.24h1.72l.54.58.43.59.29.47v.64l-.52.41-.71.31-.47.07-.45-.1Zm5.24,13.11-.71.23-.47,0-.45-.08-1.43-.31-.34-1.42.22-.44.72-.18H825l.54.45.44.45.3.36v.49Zm3.15-149.58-.2.38h-.3l-.07.58-.25.12h-1.39l-.32-.38-.15-.38-.25-.09-.2-1,.2-.84.65-.5.55-.51h.82l.55.62.52.29Zm3.88-7.47v-.24l.08-.54.58-.33.64.09.39.16.26.21.08.26.21.31v.44l-.25.36-.36.29-.66.07h-.65l-.35-.37Zm1.75,161.61h-.7l-.61-.15-.52-.21-.77-.45-.87-1-.09-1.08,1-.44h1l1,.18.56.69.34.73.23.68.13.51Zm.62-137.22-.39-1.36L834.4,255l.37-.37V254l.8-.35.72-.21.62.18.68,1.29.36,1.24-.42.36-.1.71-.45.34-1.44.11Zm1.71,7.39.65-.4L838,264h.82l.55.5.52.24-.12,1.39-.2.3h-.3l-.07.47L839,267h-1.42l-.32-.3-.15-.3-.25-.07-.2-.82Zm2.55,19.68-.39.66-.86.11-.63-.11-.34-.66.11-.59.23-.66.55-.35.63-.08.59.47V284Zm0,57.68-1.73-.08-.92-1v-.88l.92-.58h.88l1,.73.46,1Zm3.94,46.22-.45.06-.54-.06-.32-.11-.25-.21-.8-.68.13-.83.65-.26h.9l.57.32.17.51.1.48V388Zm.15-110.18-1.27.31L840.9,277l.2-1.56.17-.41,1.3.33,1,1.62Zm6.47-8.06-.62-.48-.2-.52.11-.43.67-.13.78.39.51.17.57.58-.15.59-.31.34-.79-.13Zm2.88,41.5-.65.08-.48-.08-.26-.5.08-.45.17-.5.42-.26.48-.06.45.36v.57l.08.35Zm-.16-6.68h-1.26l-.67-.51V304l.67-.31H852l.74.39.33.55Zm1.13-35.27-.38-.24-.73-1-.23-1.38.38-.4h.73l.72.29.83.34.32.66v.57l.11.68.09.4-.6.16h-.74Zm2.92,28-.45.61h-1.11l-.73-.1-.39-.61.13-.55.27-.61.64-.32.73-.07.68.43.26.59Zm11.23,22.1-.63.33-1.39-.76-1-1-1-1.21-.23-1,.3-.62,1.23.26,1.07.71,1.11,1.08.88,1.33Zm6.68,7-.53.41-.8-.23-.42-.53-.4-.68.09-.7.37-.56.81-.11.58.27.52.55.28.8Zm167.9-131.74.17-.8c-56.86,6.6-109.23-2.16-109.23-2.16l.85,2.55,1.54.86-.19,1.76-.43,1.47,1.45.51,1.62.43.17,1.79.6,1.62,1.79.6.51,1.45.6,1.45.68,1.2-.34,1.39.57.63v1.48l.46.91.51,2,1.71.51,2.16-.34.68-.68,1.65.06v.68l6.33,1,2-.4L959,215l2.39-.11,1,.17,2.39.46,14.86-.34,1.42-.4,1.42.34,1-.34,1.88-.46,2.45.34,1.14.28,1.37-.68,1-.51,2.5-.34.51-.51,5.12-.11,2.9.06,4.38.11,2.9-.46.74-.4,5.69-.17,3.53.17,3.7.06,2.33-.06,2.33-.46,3.36-.23,3.64-.17,2.62-1.37,1.82-1.08,2.79-1.65-.06-1.42.06-2.79-.68-.68.11-4-.34-1.14.8-1Zm-94.86,12.44.11.71-.26.43-1.09.41-.42-.14-.67-1.23-.55-1,.19-.43-.14-.56.53-.51.51-.36h.53l.88,1.1.61,1.12Zm16.52,3.79-3.11-.08-1.64-.92v-.84l1.64-.55h1.58l1.82.7.82,1Zm4.25-4.21-1.71.28-1-1.28-.21-.45.87-1.1H968l.8,1Zm68.29-4.5-.22.32-.31.26-.57.06h-.56l-.3-.33v-.85l.07-.47.5-.29.55.08.33.14.22.19.07.23.18.27Zm3.77-.8-.22.32-.31.26-.57.06h-.56l-.3-.33v-.85l.07-.47.5-.29.55.08.33.14.22.19.07.23.18.27Zm68.11,156.37-1.88-.68-6.94-.91-11.21-.57-7.8.51-6.32.91-3.42.68h-2l-5.35-.06-13.38.74-12.07,1.14-2.22.68-3,.51-.85-.34-2.45.06-3.36.34-3.64-.28s-4.16-.06-4.33-.11a20.61,20.61,0,0,1-2.45-1.37,9,9,0,0,1-.06-1.71l-1.14-1.65.17-3.07-.34-3.3-.4-1.82-1.08-2.22.51-1.54,4.55-.68,2.5-1.14s3.19-.06,3.59-.11,1.54.68,1.54.68l3.93.34,2.28,1.08,5.92,1.88,3.76.4,1.22.63,8.28.34,3.76.4,1.31,1,4.27.11,3.81-.23,3-2.73.17-2.45-1.88-2.39-.28-3.87-1.65-2.56-.4-1.76-1-1.88-.28-4,.63-2,.68-4.67,1.14-2.9-.17-8.08-.11-1.94-.34-1.2.68-6.72.11-3.53.63-1.08.11-3.36-.46-1.94-.91-2.28-2.62-.91-3,.4-1.71.68h-3.19l-1.76-.63h-7.63l-4.38-.8-5.58-.46-4-1-1.94-.17s-3.53-.46-3.93-.46-5.24-.34-5.24-.34l-2.45.74-2.11-.51.4-8.37-.57-1.65.23-3,2.85-2.28,2.85.11,3.7-.23,6.6.34,1.65-.57,3-.11,2.28-1.08,9.11-.17,1.82,1s3.87-1.31,4-1.31a21.32,21.32,0,0,0,2-1.37l3.81-.51,1.88,1.42,3.81.17,3.53,1.94,6.15-.51,13.32-1.84,5.18-.63,3.3-.8c-10.81-7.63-11.33-9.79-11.33-9.79h-3.24l-2.85,1.48-5,1.31-3,1.2s-4.16.51-4.38.46a18.38,18.38,0,0,0-2.22.34l-.63-.57-12.75.4-1.2.17-4.44.46-2.73.63-4.5-.11-1-.23-.17-2.39.4-1.25.06-4-.17-2,.51-1.76v-3.3l1.71-1.76.46-2.56-.11-1.76.68-3.24,4.78.46,4.38.46,1.88-.63s3,0,3.19-.06,3.53.17,3.53.17l1.08-.91s3.07-1.42,3.24-1.54,3-.8,3-.8l2.14-2.45-.28-.8-1.08-5.12.28-2.56-4.78.85-3.64.4-.91.91-4-.06-4.9-.17-7.4.11-1.14.57h-7.15l-1.37-.51-2.85-.46-1.31.85h-1.82l-4.67-1.25h-5.69l-1.54.68-7.06.28-2.73,1.59-3.07.06-1.42.51-6.38.17-1.25-.57-2.48-.17-3.44.34-2.62.06-2.16-.34-1.94.46s-1.76-.34-2-.34-2.56-.46-2.56-.46l-1.76.68-7.34.8-7.23,1-10.76-.17-4.1-.63-1.94.4-3,.11-2.16.51-4.61-.23-2.45.17-.91-.46-2.39-.91-3.64-.8-2-.23-2-1h-3.93l-1.94-.34-1.22-.51-.77.6-4.44,1.54-3.5,2.31-.68,1.62-1.45,1.37L898,235.19l.91.94.34,3.93,2.65,2.13,2.56,2,1.28,2.31,2.48.43,1.71-.6,5.38-.26,3.59-.6,3.5.34,3.07.51,4.44-.6,2.73-.43,2.73-.6,2,.85,4.61.09,1.11-.43.94-.77,2.39-.17,2.31-.6.85-.6,3.16-.26,1.28-.51,3.07.34,1.57.37.43,2.31,1.45.6V249l2.13,1.37.6,1.45v3l-.85,3.07.09,1.62,1.54,2.22.6,1.88-.68,1.11h-2.82l-2.65-1.28-.43-.85-2.9-.09-2.56-.94-7.17-.85-2,1.11H941.3l-2-.68-5,.43-2.13.85h-2.73l-1.62-1.62-3.16-2.31-1.2-1.22-2.48-.41-1.62-1.11-4.87.09-.51,1.43-.94,1.39-.94,2.82-.6,2.22-.34,1-2.31,1.62-.34,2.13.09,2.13.77,1.11-.72,1.61-2.31,1.54.94,1.37,2,3.5,1.88,3.07,1.45.51h2.82l.85-.68,1.79-.17,1-.51,4.44-.21.94.64,2.86.38,2-.55,4.48-1.32,3.67-1.54,10.12-.51,1.62-.38,5.55-.51,5.08-1,5.55-.81,4.48-.6,6.36-2.31,1.92.51,1.45,2.6,1.88,3.07.94,3.88.6,1.41-.36,1.32-4.31.26-1.49.47-4.35.47-3.37.64-1.2.47-4.48.21-2.18-.43-2.52.43-1.71,1.2-4.74-.21c-.21,0-2.48-.94-2.48-.94l-7.94.77-2.18.81h-3.29l-3.76.38-2.09-.47-4.27.26-1.75,1.54-.21,1.54,2.22,2.6,2.18,2.56,2.77.85.77,1.88,1.28,1.45,1.62,1.32.6,2.22V308l.43,2,1.24,1.41.17,1.79.6,1.49L940,316l-.38,1.41v1.75l-.21,3.16,1.12,4.18v6.32l-1.38,2.31-.17,1.88-.85,2.65,2.4,2h4.25l6-.51,3.07.51,1.28.85,11,.51h7.09l6.83.85h4.27l.37,1.45-.63,1.14-.06,3.64.23,3-.85,2,.06,2.28-1.14,2.28-1.48.85H970.33l-3.87,1-3,.34h-2.22l-2.79-1.08-3.93-.68-3-1.08-1.94-.4-1.2-.74h-6.83l-9.45.17-.17.57-2.56.23-1.14-.91-4.27.23-1,.23-2.85.23-2.85,1.42-2.73.4-1.31,1.37-1.37.51-2.62,1.88-2.9.63-2.39,1.42-3.53,2.56L899.27,372l-4.33,1.48-3,1.94-3,1.82h-2.11l-2.5,2.33V381l2.16,3.59L890.3,388l3.42,3,1.59.11,2.68-.28,1.08-.74,2.56-2.45,1.71-.57.85-1,8.42-5,4.61-3.36,2.22-.46,1.31-1.14,5.35-.28,2,.23,2-1,6.15-.23.8-.51,3.13.23,6.15-.34,1.48.74,6.32.06,2.45.28,2.16.91,4.84.63,3.59.17,2.56,1.14,3.3.68,2.9.17,4.1.06,1.76.57.8,4.21,1.59,3.7.8,1.76-.51,3-.74,1.14,1,1.54-.17,3.42-.57.4.51,1.65.11,3.59,1.31,2.79.68,2.73,1.65,4,1,2,.85,3.13,2.45,2.9,4.61,4.16,2.11,1.31,2.5.4,3.19-8.31.23-4v-4l1-2.62v-3.3l.67-3.7.8-3.54.13-3.41.74-.61.19-2.7.74-2.48,1.45-2.57-.48-2,1.25-3,.23-1.22,2.67-.61,1.09-1,3.66-.45,1-.45,1.58-.13,2.41.84h6.14l1.22.35,6.78.42,9,.16,1.93,1.19,15,5.24,6.81,1.86,3.21,1.06,2.54.84,10.09.32,5.72,3.44,4,2.22L1103,399l2.73.55,3.66,3,1.93,1,.7-.14c-3.76-26,2.39-45.19,2.39-45.19Zm-51.29-56-.18.36-.5-.12-.37-.38-.4-.5-.14-.55.06-.46.41-.14.69.09.35.34.15.73Zm-2.11-5.24.67-.15,1.11.08.56.33.22.73-.13.63-.3.36-.79-.11-.59-.38-.63-.49-.21-.55Zm-3.11,43h3l1.46,1-.73,1.44-3.1.26-1.54-.16-.69-1.48ZM1075,261.25h2.07l1,.78-.5,1.18-2.11.21-1.26-1-.26-.35ZM1027.09,255h1.23l.59.78-.26,1.22-1.26.21-.75-1-.16-.35Zm-3.19-29.26h1.23l.59.78-.3,1.18-1.26.21-.75-1-.16-.35Zm-109.25,11.5-.31.08h-1.79l-.4-.27-.18-.27-.31-.06-.25-.74.25-.61.8-.36.68-.37h1l.68.45.65.21-.15,1.25-.08.3-.26.22Zm2.33,2.22-.84.09-.61-.09-.33-.54.11-.48.22-.54.54-.29.62-.07.58.38v.61l.11.38Zm1.51-5.88-1.18.27-1.18-1.33.19-1.38.15-.36,1.2.29,1,1.43Zm13,11.19-.85.41-.71-.1-.4-.59.07-.5.67-.49.87-.14.55.44Zm-4.85,24.38-.79.23-1.85-.61-.53-1,.59-.77h1l.8.38,1.19.93Zm10,6.66-.69.4-.65.11-.73.06-.42-.22-.13-.35.47-.49.93-.6.6-.12.51.34.18.48Zm7.6,46-.43.44-1.31.16-1-.16L940.4,322l-.43-.44.08-.46,1.06-.36,1.83-.3,1,.13.48.61Zm1.66-6.13-.56.73-1,.18-.83-.31-.43-.49.31-1.11.62-.77.79-.81.78-.2.6.22.08,1Zm.73-19.9-.43.44-1.31.16-1-.16-1.11-.25-.43-.44.08-.46,1.06-.36,1.83-.3,1,.13.48.61Zm6.84,42h-1l-.82-.37-.9-.51-.4-.68v-.64l.78-.36,1.38-.15.77.32.47.93v.87Zm-27.2,36.16-.49.37-.64.26h-.41l-.37-.14-.83-.91-.46-1.44.25-.56.64-.19.67.09.78.1.79.62.16.52.21.69ZM1043,341.15l-.09.5-.24.29-.67-.07-.5-.28-.54-.37-.19-.42.07-.36.55-.14h.93l.47.25Zm-28.86-48.88h5.89l2.6,1.28,3.46.21,5.38,1.58,2.82.73,4.7.47h1.63l1.11,1.32v2.82l.56,2.6-.38,1.71.38,6.23.55,1.24-.68,1.62-.68,1.54-2.22.34-3.12-.51-4.18-.26-11,.34-3.93-.13-.55-.56h-4.74l-.43-1.62v-1.71l.64-1-.21-3.5.13-3.54-.13-7.86,1-2.35Zm-1.36-62.66h1.93l.93,1-.47,1.51-2,.28-1.17-1.28-.25-.45Zm-24.61,9.11.82-.2.48-.2.8.09.29.55v.45l-.66.4-.67.08h-.77l-.49-.28-.21-.4Zm-27.14,89.65-.47.46-1.13-.24-.81-.59-.85-.74-.24-.77.19-.62,1-.13,1.59.24.76.52.24,1Zm25.21.16-.11,2.79-.11,1.54.34,2.39-.85,1L984,337h-1.82l-1,.57h-5l-2-.68-1.82-.23-2.29-.77-3.18-.4-.35-2.43-.87-3.18-1.73-1.5-1.37-2.53-1.48-1v-1.59h10.56l5.81-1.14h6.75l1.88.65v2.08l.6,1.82Zm1.14-20.78-1,2.39.46,5.24-1.14.8-3.53-.68-4.67.68-17.53,1-.46-1.37-.8-6.72.57-4.9.8-2.16-.57-1.48,1.37-1.14,6.38-1.48h4l2.85-1.82,6.26-1.82h7.06l1.59.8-.46,5.46,1.14,1.25-.91,1.94Zm4.4,92.32-.47.36-1-.37-.62-.63-.63-.79-.1-.73.25-.54h.86l.86.7.59.35.55.91Zm1.42-84.52-.47.46-1.13-.24-.81-.58-.85-.74-.24-.77.19-.62,1-.13,1.59.24.76.52.24,1ZM997.11,394l-.49.55-1-.36-.68-.76-.71-1-.14-1,.25-.75.92-.11,1.39.43.65.68.11,1.28Zm13.27-131.29-3.27-.68-2,.68-5.35.51s-3.3-.63-3.47-.63-2.9-.46-2.9-.46L991,263.21h-5.41l-2.45,1.54-1.25-1.48-.23-1.94.34-1,.4-3.42-2-4.06-.51-2.83.17-1.48-1.14-2.22-1.08-.63-.34-1.14,3.76-.91,2.73.46,5,.46,3.33-.46,4.87-.46h4.27l3.5-1.85h7.34l7.09-.85v3.61l-1.11,3.9.17,5v4.35l.94,2v1.45l-4.78.85-2.9-.43Zm1.37,75-.81-1.66.34-2.56-.34-1,.34-2.73.06-4.53-.41-1,.34-1.79.47-1.11,1.62-.38.51.6,6.53.13.81-.3,3.54.26,3.12-.68h2.78l1,.9h9.22l.85,1.49-.73,3.76V331l-.51,1.2-1.54.73-3.88,2.31-1.24.9-2,.13-5.12.51-3.07.09-3,.09-3.37,1-1.28.43h-2.73a10.19,10.19,0,0,1-1.51-.62ZM1045.33,370l-.47.46-1.13-.24-.81-.58-.85-.74-.24-.77.19-.62,1-.13,1.59.24.76.52.24,1Zm5,2.2-.3.36-.79-.11-.59-.38-.63-.49-.21-.55.1-.46.67-.15,1.11.08.56.33.22.73Zm12.65-1.86-.38.43-.47.45-.45.1-.34-.15v-.57l.23-.9.34-.41.6-.08.46.2.23.3Zm8.54,0-.38.43-.47.45-.45.1-.34-.15v-.57l.23-.9.34-.41.6-.08.46.2.23.3Zm29.45-7.43-.38.51-1.41-.11-1.15-.48-1.26-.64-.56-.73v-.63l1.09-.24,1.14.19,1.31.49,1.22.78Zm7.75,15.36-.24.29-.66-.07-.5-.28-.54-.37-.19-.42.07-.36.55-.14h.93l.47.25.2.57Z" transform="translate(-780.3)"/></svg>